<svg id="Layer_1" data-name="Layer 1" xmlns="http://www.w3.org/2000/svg" viewBox="0 0 1366 768"><defs><style>.cls-1{fill:#e99d9d;}.cls-2{font-size:80px;font-family:FoundationSans-Bold, Foundation Sans;font-weight:700;}.cls-2,.cls-3{fill:#fff;}.cls-4{fill:none;stroke:#000;stroke-miterlimit:10;stroke-width:0.25px;}</style></defs><title>ABHealing</title><circle class="cls-1" cx="683" cy="356" r="195"/><text class="cls-2" transform="translate(547.34 307.69)">ABOUT<tspan x="74.44" y="96">ME</tspan></text><path class="cls-3" d="M705,463.09c-2.14-5.33-7-5.91-11.3-9a47.48,47.48,0,0,1-9.51-8.89,42.64,42.64,0,0,1-9.2-23.9,3.62,3.62,0,0,0-.05-.82l-.34-.22c-1.67-1-10.42,17.38-11.06,19.06-1.42,3.7-3.84,8.44-2.65,12.26,1.53,4.93,5.27,8.32,7.86,12.57-.14-.11-.38-.31-.66-.56l.61.7c-.79.44-3.33-1.41-5.8-4.25-2.15-2.47-3.54-4.89-3.5-6a60.1,60.1,0,0,0-.76,18.18c.77,6.05,4,13.26,10.11,15.56,5.27,2,9.49,5.69,13.13,9.93a42.68,42.68,0,0,1,10.08,23.9c.07.82.12,1.65.15,2.48,0-1,3.14-4.13,3.78-5.08,1.29-1.91,2.49-3.89,3.59-5.92a69.84,69.84,0,0,0,5.38-12.88A77.91,77.91,0,0,0,708,479.7,41.94,41.94,0,0,0,705,463.09Z"/><path class="cls-4" d="M858.39,532s0,0,0,.07,0,0,0,0S858.38,532,858.39,532Z"/><path class="cls-4" d="M858.37,532.09v0Z"/></svg>